<?xml version="1.0" encoding="UTF-8"?><svg id="Layer_1" xmlns="http://www.w3.org/2000/svg" viewBox="0 0 159.02 146.531"><polygon points="93.596 48.822 107.682 73.22 105.652 76.736 115.043 93.001 126.463 73.22 102.987 32.557 58.696 32.557 68.087 48.822 93.596 48.822" style="fill:#f3491b;"/><polygon points="63.37 52.381 64.093 51.128 54.702 34.863 44.588 52.381 63.37 52.381" style="fill:#f3491b;"/><polygon points="88.274 97.617 65.424 97.617 54.022 77.868 35.241 77.868 56.034 113.882 97.662 113.882 88.274 97.617" style="fill:#f3491b;"/><polygon points="86.266 56.992 41.975 56.992 32.557 73.257 76.875 73.257 86.266 56.992" style="fill:#f3491b;"/><polygon points="90.26 59.298 80.869 75.563 102.987 113.882 112.405 97.655 90.26 59.298" style="fill:#f3491b;"/></svg>