<?xml version="1.0" encoding="UTF-8"?><svg id="Layer_1" xmlns="http://www.w3.org/2000/svg" viewBox="0 0 320 121.389"><path d="M226.613,54.504v26.903c-5.633,6.39-15.048,10.088-25.978,10.088-19.168,0-31.358-12.022-31.358-30.854,0-18.327,13.031-30.938,32.535-30.938,9.248,0,16.394,2.858,22.783,9.753l-9.5,9.164c-3.531-3.531-8.407-5.464-13.451-5.464-10.677,0-16.731,6.389-16.731,17.487,0,10.509,6.474,17.487,16.142,17.487,5.129,0,9.584-1.429,12.442-3.867v-7.482h-15.637v-12.275h28.752Z" style="fill:#ebeae6;"/><path d="M93.323,31.53h15.816v44.166h28.467v14.056h-44.283V31.53Z" style="fill:#ebeae6;"/><path d="M146.339,31.53h15.816v58.223h-15.816V31.53Z" style="fill:#ebeae6;"/><polygon points="68.922 31.53 68.922 50.245 69.254 64.467 45.628 31.547 31.547 55.789 31.547 89.753 47.28 89.753 47.28 71.038 46.947 56.982 70.587 89.753 84.654 89.753 84.654 31.53 68.922 31.53" style="fill:#ebeae6;"/><rect x="24.57" y="43.668" width="28.034" height="0" transform="translate(-18.554 55.103) rotate(-59.851)" style="fill:#ebeae6;"/><polygon points="251.078 89.753 251.078 71.038 250.746 56.816 274.385 89.753 274.433 89.753 288.453 65.489 288.453 31.53 272.72 31.53 272.72 50.245 273.053 64.301 249.413 31.53 235.346 31.53 235.346 89.753 251.078 89.753" style="fill:#ebeae6;"/><polygon points="279.507 89.753 288.453 89.753 288.453 74.258 279.507 89.753" style="fill:#ebeae6;"/></svg>