<?xml version="1.0" encoding="UTF-8"?><svg id="Layer_1" xmlns="http://www.w3.org/2000/svg" viewBox="0 0 320 146.531"><path d="M245.574,93.213v21.44c-4.489,5.092-11.993,8.04-20.704,8.04-15.276,0-24.991-9.581-24.991-24.589,0-14.606,10.385-24.657,25.929-24.657,7.37,0,13.066,2.278,18.157,7.772l-7.571,7.303c-2.814-2.814-6.7-4.355-10.72-4.355-8.509,0-13.334,5.092-13.334,13.936,0,8.375,5.159,13.936,12.864,13.936,4.087,0,7.638-1.139,9.916-3.082v-5.963h-12.462v-9.782h22.914Z" style="fill:#ebeae6;"/><path d="M139.346,74.903h12.604v35.199h22.687v11.203h-35.292v-46.402Z" style="fill:#ebeae6;"/><path d="M181.598,74.903h12.604v46.402h-12.604v-46.402Z" style="fill:#ebeae6;"/><polygon points="119.899 74.903 119.899 89.818 120.164 101.153 101.334 74.917 90.113 94.237 90.113 121.305 102.651 121.305 102.651 106.39 102.386 95.187 121.226 121.305 132.437 121.305 132.437 74.903 119.899 74.903" style="fill:#ebeae6;"/><rect x="84.552" y="84.577" width="22.342" height="0" transform="translate(-25.489 124.872) rotate(-59.851)" style="fill:#ebeae6;"/><polygon points="265.072 121.305 265.072 106.39 264.807 95.055 283.646 121.305 283.685 121.305 294.858 101.967 294.858 74.903 282.32 74.903 282.32 89.818 282.585 101.021 263.745 74.903 252.534 74.903 252.534 121.305 265.072 121.305" style="fill:#ebeae6;"/><polygon points="287.728 121.305 294.858 121.305 294.858 108.956 287.728 121.305" style="fill:#ebeae6;"/><polygon points="72.279 37.179 83.157 56.02 81.589 58.736 88.841 71.296 97.661 56.02 79.531 24.619 45.328 24.619 52.58 37.179 72.279 37.179" style="fill:#ebeae6;"/><polygon points="48.937 39.928 49.496 38.96 42.244 26.4 34.433 39.928 48.937 39.928" style="fill:#ebeae6;"/><polygon points="68.169 74.861 50.524 74.861 41.718 59.61 27.215 59.61 43.272 87.422 75.419 87.422 68.169 74.861" style="fill:#ebeae6;"/><polygon points="66.618 43.489 32.415 43.489 25.142 56.049 59.367 56.049 66.618 43.489" style="fill:#ebeae6;"/><polygon points="69.703 45.269 62.451 57.83 79.531 87.422 86.804 74.89 69.703 45.269" style="fill:#ebeae6;"/></svg>